<?xml version="1.0" encoding="UTF-8" standalone="no"?>
<!DOCTYPE svg PUBLIC "-//W3C//DTD SVG 1.1//EN"
 "http://www.w3.org/Graphics/SVG/1.1/DTD/svg11.dtd">
<!-- Generated by graphviz version 2.46.0 (20210118.1747)
 -->
<!-- Pages: 1 -->
<svg width="121pt" height="203pt"
 viewBox="0.00 0.00 121.35 202.65" xmlns="http://www.w3.org/2000/svg" xmlns:xlink="http://www.w3.org/1999/xlink">
<g id="graph0" class="graph" transform="scale(1 1) rotate(0) translate(4 198.65)">
<polygon fill="white" stroke="transparent" points="-4,4 -4,-198.65 117.35,-198.65 117.35,4 -4,4"/>
<!-- A -->
<g id="node1" class="node">
<title>A</title>
<polygon fill="lightgray" stroke="black" points="23,-134.8 0,-134.8 0,-116.8 23,-116.8 23,-134.8"/>
<text text-anchor="middle" x="11.5" y="-123.6" font-family="Times New Roman,serif" font-size="9.00">A</text>
</g>
<!-- A XOR B -->
<g id="node4" class="node">
<title>A XOR B</title>
<ellipse fill="lightblue" stroke="black" cx="53.5" cy="-37.48" rx="37.45" ry="37.45"/>
<text text-anchor="middle" x="53.5" y="-35.28" font-family="Times New Roman,serif" font-size="9.00">A XOR B</text>
</g>
<!-- A&#45;&gt;A XOR B -->
<g id="edge1" class="edge">
<title>A&#45;&gt;A XOR B</title>
<path fill="none" stroke="green" stroke-width="0.13" d="M15.53,-116.53C19.63,-108.09 26.32,-94.35 32.95,-80.72"/>
<polygon fill="green" stroke="green" stroke-width="0.13" points="36.26,-81.9 37.49,-71.38 29.97,-78.84 36.26,-81.9"/>
</g>
<!-- B -->
<g id="node2" class="node">
<title>B</title>
<polygon fill="lightgray" stroke="black" points="110,-194.65 87,-194.65 87,-176.65 110,-176.65 110,-194.65"/>
<text text-anchor="middle" x="98.5" y="-183.45" font-family="Times New Roman,serif" font-size="9.00">B</text>
</g>
<!-- 1 -->
<g id="node5" class="node">
<title>1</title>
<ellipse fill="white" stroke="black" cx="98.5" cy="-125.8" rx="14.7" ry="14.7"/>
<text text-anchor="middle" x="98.5" y="-123.6" font-family="Times New Roman,serif" font-size="9.00">1</text>
</g>
<!-- B&#45;&gt;1 -->
<g id="edge3" class="edge">
<title>B&#45;&gt;1</title>
<path fill="none" stroke="red" stroke-width="0.26" d="M98.5,-176.61C98.5,-170 98.5,-160.29 98.5,-151.19"/>
<polygon fill="red" stroke="red" stroke-width="0.26" points="102,-151.01 98.5,-141.01 95,-151.01 102,-151.01"/>
</g>
<!-- &#45;3 -->
<g id="node3" class="node">
<title>&#45;3</title>
<polygon fill="lightgray" stroke="black" points="65.5,-134.8 41.5,-134.8 41.5,-116.8 65.5,-116.8 65.5,-134.8"/>
<text text-anchor="middle" x="53.5" y="-123.6" font-family="Times New Roman,serif" font-size="9.00">&#45;3</text>
</g>
<!-- &#45;3&#45;&gt;A XOR B -->
<g id="edge2" class="edge">
<title>&#45;3&#45;&gt;A XOR B</title>
<path fill="none" stroke="red" stroke-width="0.23" d="M53.5,-116.53C53.5,-109.01 53.5,-97.28 53.5,-85.17"/>
<polygon fill="red" stroke="red" stroke-width="0.23" points="57,-85 53.5,-75 50,-85 57,-85"/>
</g>
<!-- 1&#45;&gt;A XOR B -->
<g id="edge4" class="edge">
<title>1&#45;&gt;A XOR B</title>
<path fill="none" stroke="red" stroke-width="0.41" d="M91.86,-112.06C87.42,-103.55 81.31,-91.83 75.27,-80.24"/>
<polygon fill="red" stroke="red" stroke-width="0.41" points="78.2,-78.29 70.47,-71.04 71.99,-81.53 78.2,-78.29"/>
</g>
</g>
</svg>
